<svg xmlns="http://www.w3.org/2000/svg" viewBox="0 0 1160.24 1220.31"><defs><style>.cls-1{fill:#526873;}.cls-2{fill:#fdfdfd;}.cls-3{fill:#8d191d;}</style></defs><g id="Capa_2" data-name="Capa 2"><g id="Capa_1-2" data-name="Capa 1"><path class="cls-1" d="M175.71,76.31q63.24,0,126.48,0A17.06,17.06,0,0,0,311.12,74,559.41,559.41,0,0,1,495.51,7.37a485.68,485.68,0,0,1,150.77-2.8A556.65,556.65,0,0,1,848.5,73.75a17.88,17.88,0,0,0,9.35,2.62q124.23-.12,248.45-.08c11.91,0,23.25,2,33.12,9.09,13.53,9.74,19.31,24,19.79,39.74,1,30.95,1.93,62-.44,92.91-1.81,23.46-14.7,40.92-34.42,53.35a159.91,159.91,0,0,1-16.1,9c-3.6,1.73-4.48,4-4.42,7.79.22,14.16.09,28.32.09,42.49q0,327.2.06,654.38c0,27.69-6,53.44-21.84,76.5-8.61,12.5-19.49,22.66-31.58,31.72-53.66,40.2-113.51,67.73-177.49,86.83a960.44,960.44,0,0,1-149.17,31.8,976.4,976.4,0,0,1-137,8.34c-27.66-.25-55.3,0-82.94-1.81a988.51,988.51,0,0,1-162.8-24c-52.46-12.29-103.54-28.51-152-52.27-32-15.67-62.11-34.34-89.58-56.94-28.68-23.61-42.08-55.08-43.45-91.87-.38-10.32-.1-20.66-.1-31q0-336.69.1-673.39c0-4.58-1.31-7-5.42-9.19-10-5.22-20-10.5-28.29-18.55C8.33,247.55.67,230.9.33,211.42c-.47-27.49-.4-55,0-82.48.22-15.22,4.44-29.37,16-40.21,9.61-9,21.55-12.33,34.42-12.36,41.66-.1,83.32,0,125,0ZM64.57,640.84q0,165,0,329.91c0,7.17-.07,14.34.12,21.5q1.5,57.64,47.52,92.45c48.32,36.43,101.76,62.84,159.18,81.51A934.93,934.93,0,0,0,413,1199.85a951.19,951.19,0,0,0,99.79,10.46c23.47,1.26,47,.93,70.44,1.24a974.94,974.94,0,0,0,135.57-7.62,964.57,964.57,0,0,0,129.6-25.74c69.5-18.71,135-46.06,193.3-89,13.82-10.18,26.42-21.32,35.7-35.91,13.5-21.24,18-44.68,18-69.53q-.18-332.41-.07-664.83c0-12.16.1-24.32-.07-36.49,0-3.21.81-5.1,3.82-6.66,7.37-3.84,14.69-7.84,21.71-12.29,17.86-11.33,29-27.6,29.8-48.74,1.08-29.79.64-59.65.14-89.46-.33-19.28-11.78-33.9-28.52-38.52-6.17-1.7-12.5-1.83-18.83-1.83H855.9c-2.81,0-5.53.1-8.17-1.53-18-11.12-37-20.41-56.37-28.84-58-25.22-118.43-41.15-181.7-44.89a493.83,493.83,0,0,0-154.93,15.2c-49.18,12.85-96.06,31.34-140,57A21.21,21.21,0,0,1,303.48,85q-123-.12-245.93,0c-3.83,0-7.67.11-11.49.38C28.68,86.55,15.79,97.13,11.1,114a58.66,58.66,0,0,0-2.17,15.77c0,27-.21,54,.1,81,.22,19.83,8.62,36,24,48.42,7.82,6.33,16.88,10.66,25.7,15.3,4.39,2.32,6,4.89,6,10Q64.46,462.63,64.57,640.84Z"/><path class="cls-2" d="M64.57,640.84q0-178.2.14-356.41c0-5.09-1.58-7.66-6-10-8.82-4.64-17.88-9-25.7-15.3C17.65,246.69,9.25,230.56,9,210.73c-.31-27-.06-54-.1-81A58.66,58.66,0,0,1,11.1,114c4.69-16.85,17.58-27.43,35-28.69,3.82-.27,7.66-.38,11.49-.38q123,0,245.93,0a21.21,21.21,0,0,0,11.23-3.14c44-25.64,90.84-44.13,140-57A493.83,493.83,0,0,1,609.66,9.63c63.27,3.74,123.67,19.67,181.7,44.89,19.39,8.43,38.35,17.72,56.37,28.84,2.64,1.63,5.36,1.53,8.17,1.53h247.44c6.33,0,12.66.13,18.83,1.83,16.74,4.62,28.19,19.24,28.52,38.52.5,29.81.94,59.67-.14,89.46-.76,21.14-11.94,37.41-29.8,48.74-7,4.45-14.34,8.45-21.71,12.29-3,1.56-3.86,3.45-3.82,6.66.17,12.17.07,24.33.07,36.49q0,332.42.07,664.83c0,24.85-4.49,48.29-18,69.53-9.28,14.59-21.88,25.73-35.7,35.91-58.34,43-123.8,70.33-193.3,89a964.57,964.57,0,0,1-129.6,25.74,974.94,974.94,0,0,1-135.57,7.62c-23.48-.31-47,0-70.44-1.24A951.19,951.19,0,0,1,413,1199.85a934.93,934.93,0,0,1-141.57-33.64c-57.42-18.67-110.86-45.08-159.18-81.51q-46.09-34.76-47.52-92.45c-.19-7.16-.12-14.33-.12-21.5Q64.57,805.8,64.57,640.84Zm51.52-21.18q0,178,0,355.93a214.62,214.62,0,0,0,1,22c1.93,18.74,9.32,34.23,25.05,45.71,43.6,31.8,91.81,54.19,142.85,70.8,64.89,21.13,131.67,32.7,199.57,37.94,55.88,4.3,111.85,4.33,167.8,1.33a849.74,849.74,0,0,0,173.3-27.2c69.13-18.39,133.54-46.8,191.09-89.87,10.63-8,19.41-17.2,24.09-29.85,3.64-9.84,4.27-20.08,4.27-30.47q-.08-358.68-.23-717.36c0-10.16,3.41-16.78,11.94-21.54,12.34-6.89,24.53-14.06,36.84-21,5-2.81,7.35-6.71,7.28-12.57-.2-16.33,0-32.66-.08-49,0-13.76-6.85-20.54-20.49-20.54H844.9c-2.66,0-5.33,0-8,0-6,.07-10.35,3-13.4,8.12-2.39,4-3,8.37-3,12.94,0,15.16.38,30.34-.14,45.49-.28,8.13,3,13.05,9.86,16.76a355.81,355.81,0,0,1,33.85,20.18c6.47,4.49,9.69,10.09,9.68,18.4q-.24,321.43-.15,642.87c0,3.82-.28,7.66-.59,11.47-.81,9.81-5.37,17.4-13.86,22.4-4.72,2.78-9.58,5.37-14.53,7.7-72.1,34-148.53,49.8-227.7,53.92a694.73,694.73,0,0,1-154.31-8.94,588.57,588.57,0,0,1-148.64-46c-18.67-8.66-26.46-21.11-26.41-42q.75-319.42.08-638.87c0-10.71,3.64-17.6,12.22-23.14,10.91-7,22.24-13.36,33.47-19.85,4.29-2.48,7.51-5.71,7.53-10.94.07-17.33.37-34.67-.13-52-.35-12.22-7.09-18.05-19.13-18.05H190.1q-54.73,0-109.47,0c-10.7,0-15.95,4.93-16.75,15.58-.18,2.33-.21,4.67-.22,7,0,14.83.28,29.67-.14,44.48-.18,6.65,2.42,10.34,8.16,13.28a238.27,238.27,0,0,1,35.23,21.69c6.4,4.86,9.34,10.83,9.32,19.22Q115.93,437.7,116.09,619.66ZM584.64,51.29A546.44,546.44,0,0,0,415.78,79Q394,86.15,373,95.46a45.23,45.23,0,0,0-7,3.81c-12,8.14-13.45,20.4-2.74,30.16,5.85,5.34,8.14,11.19,8.08,18.86-.19,25.65-.08,51.31,0,77,0,2.77-.88,4.12-3.46,5.12-5.26,2.05-10.48,4.29-15.52,6.83-8.49,4.27-11.64,9.75-10.27,19,2.06,14,3.77,28.06,7.92,41.63,4.93,16.11,11.23,31.44,26,41.41,2.09,1.41.92,2.3-.08,3.46A103,103,0,0,0,359,370.88c-15.9,38.05-27.81,77.3-33.76,118.17-3.33,22.82-4.36,45.79.71,68.56,3.7,16.62,10.14,31.76,25.11,41.63,2,1.29,1.73,3,1.73,4.8q.13,120.71.29,241.42a7.5,7.5,0,0,1-2,5.35,46.76,46.76,0,0,0-9.76,19.46c-4.32,17.07,2.15,31.08,17.88,39a166.63,166.63,0,0,0,26.06,10c32.65,10.1,66.1,16.66,99.83,21.76,31.13,4.71,62.4,8.15,94,8.31,24.69.13,49.22-2,73.71-5a808.28,808.28,0,0,0,103.45-19.16c16.75-4.32,33.46-8.87,48.9-17,11.57-6.08,17.15-15.81,16.94-28.85a44.67,44.67,0,0,0-10.18-27.58,12,12,0,0,1-2.87-8.09c0-32-.07-64-.11-96q-.07-71.73-.1-143.45c0-2-.62-4.17,1.77-5.77,12.74-8.55,19.28-21.31,23.29-35.55,7.7-27.31,5.28-54.79.59-82.2-6.22-36.39-17.92-71.22-31-105.6-4.52-11.87-10.4-23.08-19-32.58-1.69-1.85-1.17-2.42.68-3.54,9.26-5.62,15.75-13.72,20.31-23.43,9.28-19.75,12.25-41,14.62-62.36.84-7.53-3.29-12.71-9.82-15.9a158.8,158.8,0,0,0-15.11-6.51c-3.29-1.19-4.44-2.86-4.41-6.46.18-23.49.36-47,0-70.48-.17-10.3,1.42-18.83,10-26.19s7.22-18.78-1.32-26.23a44.23,44.23,0,0,0-12-7A534.94,534.94,0,0,0,584.64,51.29Z"/><path class="cls-3" d="M116.09,619.66q0-182,.14-363.93c0-8.39-2.92-14.36-9.32-19.22a238.27,238.27,0,0,0-35.23-21.69c-5.74-2.94-8.34-6.63-8.16-13.28.42-14.81.12-29.65.14-44.48,0-2.33,0-4.67.22-7,.8-10.65,6.05-15.57,16.75-15.58q54.74,0,109.47,0H321.58c12,0,18.78,5.83,19.13,18.05.5,17.31.2,34.65.13,52,0,5.23-3.24,8.46-7.53,10.94-11.23,6.49-22.56,12.8-33.47,19.85-8.58,5.54-12.24,12.43-12.22,23.14q.45,319.44-.08,638.87c-.05,20.87,7.74,33.32,26.41,42a588.57,588.57,0,0,0,148.64,46A694.73,694.73,0,0,0,616.9,994.2c79.17-4.12,155.6-19.93,227.7-53.92,4.95-2.33,9.81-4.92,14.53-7.7,8.49-5,13-12.59,13.86-22.4.31-3.81.59-7.65.59-11.47q0-321.44.15-642.87c0-8.31-3.21-13.91-9.68-18.4a355.81,355.81,0,0,0-33.85-20.18c-6.88-3.71-10.14-8.63-9.86-16.76.52-15.15.17-30.33.14-45.49,0-4.57.63-8.92,3-12.94,3-5.13,7.35-8,13.4-8.12,2.67,0,5.34,0,8,0h235.45c13.64,0,20.44,6.78,20.49,20.54.05,16.33-.12,32.66.08,49,.07,5.86-2.31,9.76-7.28,12.57-12.31,6.95-24.5,14.12-36.84,21-8.53,4.76-12,11.38-11.94,21.54q.38,358.68.23,717.36c0,10.39-.63,20.63-4.27,30.47-4.68,12.65-13.46,21.9-24.09,29.85-57.55,43.07-122,71.48-191.09,89.87a849.74,849.74,0,0,1-173.3,27.2c-56,3-111.92,3-167.8-1.33-67.9-5.24-134.68-16.81-199.57-37.94-51-16.61-99.25-39-142.85-70.8-15.73-11.48-23.12-27-25.05-45.71a214.62,214.62,0,0,1-1-22Q116.12,797.63,116.09,619.66Z"/><path class="cls-1" d="M584.64,51.29A534.94,534.94,0,0,1,787.26,94.47a44.23,44.23,0,0,1,12,7c8.54,7.45,9.86,18.89,1.32,26.23s-10.13,15.89-10,26.19c.39,23.49.21,47,0,70.48,0,3.6,1.12,5.27,4.41,6.46a158.8,158.8,0,0,1,15.11,6.51c6.53,3.19,10.66,8.37,9.82,15.9-2.37,21.35-5.34,42.61-14.62,62.36-4.56,9.71-11,17.81-20.31,23.43-1.85,1.12-2.37,1.69-.68,3.54,8.64,9.5,14.52,20.71,19,32.58,13.09,34.38,24.79,69.21,31,105.6,4.69,27.41,7.11,54.89-.59,82.2-4,14.24-10.55,27-23.29,35.55-2.39,1.6-1.77,3.73-1.77,5.77q0,71.73.1,143.45c0,32,.14,64,.11,96a12,12,0,0,0,2.87,8.09,44.67,44.67,0,0,1,10.18,27.58c.21,13-5.37,22.77-16.94,28.85-15.44,8.11-32.15,12.66-48.9,17a808.28,808.28,0,0,1-103.45,19.16c-24.49,3-49,5.11-73.71,5-31.55-.16-62.82-3.6-94-8.31-33.73-5.1-67.18-11.66-99.83-21.76a166.63,166.63,0,0,1-26.06-10c-15.73-7.93-22.2-21.94-17.88-39a46.76,46.76,0,0,1,9.76-19.46,7.5,7.5,0,0,0,2-5.35q-.18-120.72-.29-241.42c0-1.8.23-3.51-1.73-4.8-15-9.87-21.41-25-25.11-41.63-5.07-22.77-4-45.74-.71-68.56,5.95-40.87,17.86-80.12,33.76-118.17a103,103,0,0,1,16.89-28.14c1-1.16,2.17-2.05.08-3.46-14.73-10-21-25.3-26-41.41-4.15-13.57-5.86-27.65-7.92-41.63-1.37-9.28,1.78-14.76,10.27-19,5-2.54,10.26-4.78,15.52-6.83,2.58-1,3.47-2.35,3.46-5.12-.12-25.66-.23-51.32,0-77,.06-7.67-2.23-13.52-8.08-18.86-10.71-9.76-9.3-22,2.74-30.16a45.23,45.23,0,0,1,7-3.81q21-9.27,42.8-16.48A546.44,546.44,0,0,1,584.64,51.29ZM483,697.2l.09.69.44-.08-.63-.54c-5.34-4.68-10.5-9.6-16.06-14C442.56,664,423.15,641,411.74,611.81c-.61-1.57-1.19-3-3.41-2.92-14,.51-27.92,1.05-41.47,5.11-3.61,1.08-4.85,3-4.79,6.82.22,16.48.31,33,0,49.45-.09,4.84,1.26,6.82,6.1,8a919.18,919.18,0,0,0,91.17,16.82C467.18,696.11,475,698,483,697.2ZM621.44,239.6c-16,7.43-32.67,10.73-50.36,8.81-11.23-1.22-21.62-5-31.85-9.38l-1.16-.4c.06.4.12.8.19,1.2,1.12,1.84,2.15,3.75,3.38,5.51,4,5.78,3.49,7.47-3.09,10.17-13.09,5.38-24.81,12.87-34.53,23.22-2.19,2.32-6.85,4.3-4.58,8.37,2.16,3.85,6.51,2.16,10.07,1.6,11.18-1.72,21.7-.39,30.45,7.41A58,58,0,0,0,575.18,311c17.94,1.3,34.46-2.22,47.23-16.34a21.86,21.86,0,0,1,10.67-6.17c6.46-1.78,12.87-1,19.23.6,2.87.75,5.4.13,7.08-2.33,1.92-2.81-.85-4.23-2.27-5.81a99.7,99.7,0,0,0-35.77-25.73c-5.24-2.22-5.76-4.44-2.5-9.08,1.23-1.76,2.23-3.67,3.34-5.52l.44-1.08ZM725.81,872.16c.92.76,1.93.35,2.85.13A531,531,0,0,0,797.18,851c2.43-.94,2.6-2.52,2.59-4.64q-.32-65.21-.52-130.42c0-3-.58-4.14-3.93-3.43-14.31,3-28.65,6-43,8.6-3.56.66-3.34,2-2.32,4.6,9.42,24,9.11,48.81,5.49,73.8a159,159,0,0,1-29.54,72.71,2.2,2.2,0,0,0-.35.33s.06.16.09.25ZM413,819c0,30.16.09,60.32-.1,90.47,0,4.05,1.19,4.89,5,4.87q55.24-.21,110.47,0c3.58,0,4.92-.65,4.78-4.57-.21-6.32,3.1-8.41,8.48-5.5,28.29,15.3,58.31,18.82,89.57,13,39.21-7.36,71.28-26.18,93.33-60.18,13.89-21.42,20.27-45.31,22.81-70.53,2.72-27-1.49-52.36-14.84-76.13-11.86-21.14-28-38.33-47.28-52.86C670,646,654.93,634.1,639.75,622.42c-2.45-1.89-5-3.75-3.64-7.35,1.31-3.38,4.45-2.92,7.28-2.93h4q48,0,96,0c3,0,4.83,0,4.82-4.07q-.18-91.23,0-182.45c0-3.38-1.07-4.18-4.26-4.17q-55.74.13-111.47,0c-3.57,0-4.49,1.12-4.45,4.55.09,6.82-2.78,8.59-8.62,5.46-29.17-15.66-60-19.08-92-12.12-88.79,19.31-121.21,95.45-112.75,165.78,3.32,27.55,17.67,50.21,36.12,70.42,13.81,15.11,30.63,26.65,46.57,39.22,8.5,6.7,17.16,13.19,25.72,19.82,1.77,1.36,3.21,3,2.49,5.52s-2.81,3.53-5.33,3.62c-1.5,0-3,0-4.5,0-32.49,0-65,.08-97.48-.09-4.17,0-5.25,1.15-5.22,5.28C413.13,759,413,789,413,819Zm99.4-596.76c-5.2,10.5-11.91,19.06-21.49,25.1-23.69,14.95-55.64,8.8-74.37-14.35-1.63-2-2.75-3.93-4.93-.54-12.34,19.23-23.83,38.36-15.93,63,3.71,11.62,1.22,23.83-1.43,35.57-1,4.27-.05,7.09,3.07,10.1a199.18,199.18,0,0,0,52.44,36.09c34.07,16.39,70.23,24.37,107.83,26.52,42.64,2.44,84.49-1.66,125-15.74,30.4-10.57,58-25.94,80.56-49.36a7.88,7.88,0,0,0,2.34-8c-2.83-13.28-2.66-26.6,2.18-39.35a29.66,29.66,0,0,0,.85-18.5c-.85-3.38-1.69-6.78-2.78-10.09-3.95-11.93-9.53-22.95-17.91-32.37a3.58,3.58,0,0,0-.74.39c-.53.63-1,1.28-1.57,1.93-14.73,18.13-33.68,25.53-56.69,21.54-17.49-3-29.64-13.6-37.82-29-1.41-2.67-2.18-3.63-4.79-1.1-5.62,5.47-11.28,10.86-15.62,17.46-3.79,5.77-3.77,5.78,2.16,9,13.78,7.42,26.07,16.68,35.78,29.1,4,5.08,3.65,8.74-1,13.05A35.73,35.73,0,0,1,656,299.42c-8.78,3.39-18,4.66-27.27,5.73-1.81.21-3.47.33-5,1.66-20.58,17.53-57.25,18.64-80.17,3.47-5.9-3.9-11.85-5.2-18.43-6.09-10.91-1.47-21.72-3.58-31.2-9.68-7.62-4.9-8.14-9.33-2.33-16.35,10.51-12.7,23.7-21.83,38.49-28.76,3.12-1.46,3.44-2.84,1.72-5.61C526.68,235.62,520,229,512.44,222.2ZM796.71,115.11c-.45-3.69-2.82-6-5.61-7.93-4.43-3-9.5-4.77-14.42-6.79C733.2,82.51,688,71.15,641.44,65.07a455.72,455.72,0,0,0-98.7-2.41A549,549,0,0,0,430.26,84.44c-18.95,5.77-37.61,12.37-55.54,20.8-10.78,5.06-11.61,10.88-3.41,18.92,3.33,3.28,7.23,6.39,7.86,11.26.73,5.57,3.13,4.84,7.23,3.4,30.31-10.65,61-19.92,92.61-26a18.28,18.28,0,0,1,13.22,2.28q88.9,49.44,177.72-.39a16.28,16.28,0,0,1,11.85-2c16.82,3.28,33.44,7.4,49.91,12.12,15.67,4.49,31.14,9.61,46.59,14.79,1.17.39,3.13,2.18,3.51-.47,1.1-7.79,6.58-12.45,11.73-17.42A10,10,0,0,0,796.71,115.11ZM381,226.87c10.23-2.24,10.23-2.24,10.49-12,.09-3.16.55-6.36.2-9.48-.54-4.78,1.72-6.64,5.95-8.09,39.81-13.61,80.7-22.45,122.35-27.9,3.53-.46,5.31-1.19,5.08-5.33-.35-6.37.1-6.54,6.82-6.54H624.3c6.75,0,7,0,6.83,7-.06,3.32,1.24,4.32,4.2,4.69,7.59.94,15.18,2,22.73,3.17,35.35,5.65,70.32,13,104.11,25,10.5,3.76,8.73,1.56,8.89,12.36,0,2.49.43,5.08-.08,7.48-1.21,5.76,2.2,7.45,6.72,8.81,2.89.87,3.38,0,3.38-2.7q-.11-34.73,0-69.46c0-2.42-.81-3.52-3-4.29-31.29-10.85-62.9-20.54-95.41-27.08a13.64,13.64,0,0,0-9.9,1.59q-92.07,50.28-184.2-.1a12.89,12.89,0,0,0-9.38-1.56c-32.51,6.54-64.11,16.23-95.35,27.24-1.89.67-2.95,1.41-2.94,3.79C381,177.8,381,202.12,381,226.87Zm3.42,120.79a78.94,78.94,0,0,0-12.48,18.43c-9.75,19-16.22,39.32-22.4,59.68-9.45,31.11-17,62.62-16.93,95.44,0,17,1.09,33.95,7.48,50,4.6,11.59,12.33,19.82,24.52,23.81,13.26,4.34,26.84,4.33,40.5,4.18,3,0,2.05-2,1.71-3.44-4.1-16.93-3.67-34-1.87-51.14,3.49-33.17,15.11-62.92,37.52-88,2.41-2.7,2.29-3.57-.8-5.6-25.38-16.63-43.37-39-52.17-68.35C386.13,371.67,384.78,360.32,384.37,347.66Zm392-83c.65-2.37,1.2-3.93,1.5-5.54.94-5.07,1.91-10.13,2.64-15.23,1.47-10.25,1.49-10.53-8.27-13.58-5.28-1.65-7.82-4.2-7.08-9.95.46-3.61-.15-7.34.15-11s-1-5.16-4.43-6.39c-42-14.79-85.41-22.86-129.37-28.51-4.33-.55-6.64-1.77-5.9-6.36.66-4-1.09-4.92-4.93-4.9q-42.24.24-84.48,0c-4.14,0-6.29.6-5.52,5.3.6,3.62-1.08,5.32-4.92,5.85-13,1.78-26,3.66-39,6a586.74,586.74,0,0,0-85,21.56c-3.34,1.13-4.89,2.61-4.63,6.3.29,4.14-.43,8.37,0,12.48.62,5.72-1.71,8.24-7.12,9.76-9.18,2.57-9.25,2.94-8,12.22.84,6.44,1.59,13,4.23,19.9A124.37,124.37,0,0,1,400,232.32c27.76-44,94.09-49.55,126.52-9.13a20.88,20.88,0,0,0,4.92,4.18c18.58,12.26,38.8,18.42,61.09,14.91,17.19-2.7,33.17-8.35,44.94-22.4a61.53,61.53,0,0,1,10.35-9.37c33.74-25.31,84.33-17.23,110.45,17.48C766.49,238.89,772.07,251.06,776.41,264.7ZM776,348.25c-.19,20.6-4.48,39.26-14.06,56.44a32.76,32.76,0,0,0-4.35,17.09c.33,51.48.18,103,.18,154.43,0,6.5.13,13,0,19.49-.08,2.81.74,3.69,3.62,3.67a174.19,174.19,0,0,0,20.43-1.2c19.57-2.41,34.24-11.21,40.67-30.94a133.21,133.21,0,0,0,4.44-16.86c4.45-24,1.47-47.85-2.69-71.49-6.2-35.17-17.56-68.9-30.45-102.12C789.8,366.53,784.8,356.77,776,348.25ZM448.4,924.69c1,.25,1.58.43,2.18.55,19.11,3.73,38.32,6.71,57.61,9.35C550,940.3,591.77,941.5,633.71,937c42.89-4.56,85.31-11.82,127-23,13.63-3.67,27.23-7.62,39.88-14.11,8.62-4.42,12.55-11.76,12-21.24-.4-7.45-3.27-14.16-7.5-20.35-1.86-2.72-3.62-3-6.61-1.8-23.62,9.6-48,16.65-72.82,22.47a25.36,25.36,0,0,0-12.23,6.85c-34.79,33-76.51,46.25-123.89,42.74a128.64,128.64,0,0,1-43.24-11.28c-1.08-.49-3.25-2.81-3.49.64-.38,5.26-3.65,6-7.94,6q-40.47-.09-80.94,0C452.27,923.89,450.46,923.38,448.4,924.69ZM656,621.52l-.48.93c2.32,1.82,4.65,3.63,7,5.46,24.32,19.31,50.89,36.15,68.71,62.59,1.06,1.56,2.34,1.32,3.92,1.08q30.38-4.49,60.15-11.9c3-.76,4-2,3.94-5q-.23-27.23,0-54.45c0-3.15-1.15-4.72-3.81-6.15-9.65-5.15-20.09-6.75-30.77-7.5-6.75-.48-6.74-.5-6.76,6.32,0,7.95-.68,8.65-8.46,8.65ZM403.65,792.27c0-22.32-.09-44.65.09-67,0-3.7-1.05-5.24-4.69-5.91-10.79-2-21.58-4.07-32.27-6.52-3.65-.84-4.6-.27-4.57,3.51q.41,65,.51,130c0,2.79.88,4.06,3.45,5.09,10.82,4.31,21.85,8,32.88,11.73,3.68,1.24,4.74.8,4.7-3.4C403.55,837.26,403.65,814.77,403.65,792.27ZM531.28,408.55c-52.5-8.61-100.65-26.14-140.14-64.42-.08,1.52-.17,2.28-.16,3,.57,43.43,19.87,76.34,56,99.89,2.54,1.66,3.92.91,5.93-.88A153,153,0,0,1,516,412.26C521.05,410.89,526.18,409.78,531.28,408.55Zm237.93-66.63c-38.47,40.32-101.48,65.67-176.65,68.65,8.86,2.78,16.38,5.18,23.52,8.61,1,.47,2.56,1,2.53-.93-.1-6.27,4.08-6.11,8.51-6.11,39.29.05,78.58,0,117.87.14,4.13,0,6.3-1.44,8.27-4.77a111.48,111.48,0,0,0,13.4-33.14C768.93,364,770.35,353.48,769.21,341.92ZM461.55,250.37a43.68,43.68,0,0,0,11.42-1.1c12.67-2.63,22.54-9.55,29.66-20.25,4.17-6.28,3.28-12.26-1.76-15.23C476.82,199.66,440,204.1,420,223.4c-2.22,2.14-2.14,3.47-.4,5.74Q435.46,250,461.55,250.37Zm240.35,0c15.48-.15,29.34-7.1,40-20.71,1.75-2.24,2.33-3.7-.27-6.1-20-18.52-53.23-23.51-77.87-11.75-6.88,3.29-8.84,5.77-5.37,15.26a23.19,23.19,0,0,0,4.33,6.63C672.46,245.25,685.18,250.31,701.9,250.39ZM504.1,714.25c-5-3.75-8.25-9.44-15.2-10-21.22-1.77-42.29-4.87-63.29-8.42-19.84-3.36-39.58-7.19-59.07-12.25-3.17-.82-4.57-.41-4.37,3.32.28,5.32.15,10.66.05,16,0,2.11.4,3.33,2.82,3.71,17.71,2.79,35.08,7.75,53.21,7.69C446.87,714.17,475.49,714.25,504.1,714.25ZM403.65,892.58c0-5.83-.2-11.66.08-17.47.16-3.41-.93-4.9-4.27-5.94-10-3.12-19.87-6.57-29.69-10.15-11.6-4.22-12.24-4-17.09,7.63-.39.92-.74,1.85-1.06,2.79-5,15-.55,25.61,13.77,32.2,11.2,5.15,23,8.62,34.83,11.93,2.76.77,3.54.31,3.47-2.52C403.56,904.89,403.65,898.73,403.65,892.58ZM772.82,315.46c.29,2.47.44,5,.88,7.41,1.41,7.84,5.74,9.38,11.74,4.14,5.75-5,9.58-11.4,12.63-18.34,7.67-17.46,9.64-36.22,12.66-54.73.61-3.73-1.22-6.48-4.6-8-4.07-1.87-8.25-3.52-12.33-5.38-2.71-1.23-3.52-.09-3.68,2.45-1.08,16.3-6.21,31.58-11.9,46.7A78.49,78.49,0,0,0,772.82,315.46Zm-384.63-4.54a58.76,58.76,0,0,0-3.83-20.54A248.13,248.13,0,0,1,374,254c-1-4.84.46-12.65-3.42-13.76s-9.59,3.41-14.41,5.65c-4,1.85-5.44,5-4.65,9.42,1.31,7.36,2.19,14.81,3.58,22.16C358,292.87,361.76,308,371,321.17c1.54,2.19,3.16,4.27,5.63,5.54,5.2,2.66,9.33.84,10.39-4.89C387.66,318.23,387.81,314.55,388.19,310.92ZM736.31,697.5c3,5.64,6,11,8.67,16.48,1,2.09,2.27,2.38,4.35,2,13.49-2.74,27-5.29,40.51-8.09,8.69-1.8,9.4-2.87,9.28-11.69,0-1.16,0-2.33-.16-3.48-.56-5.28-2.83-7-8-6-5.7,1.12-11.34,2.49-17,3.6C761.41,692.74,748.91,695.09,736.31,697.5Z"/><path class="cls-2" d="M413,819c0-30,.09-60-.09-90,0-4.13,1.05-5.3,5.22-5.28,32.49.17,65,.1,97.48.09,1.5,0,3,0,4.5,0,2.52-.09,4.57-.93,5.33-3.62s-.72-4.16-2.49-5.52c-8.56-6.63-17.22-13.12-25.72-19.82-15.94-12.57-32.76-24.11-46.57-39.22-18.45-20.21-32.8-42.87-36.12-70.42-8.46-70.33,24-146.47,112.75-165.78,32-7,62.87-3.54,92,12.12,5.84,3.13,8.71,1.36,8.62-5.46,0-3.43.88-4.56,4.45-4.55q55.72.18,111.47,0c3.19,0,4.26.79,4.26,4.17q-.15,91.23,0,182.45c0,4-1.82,4.08-4.82,4.07q-48-.09-96,0h-4c-2.83,0-6-.45-7.28,2.93-1.39,3.6,1.19,5.46,3.64,7.35C654.93,634.1,670,646,685.26,657.49c19.26,14.53,35.42,31.72,47.28,52.86,13.35,23.77,17.56,49.17,14.84,76.13-2.54,25.22-8.92,49.11-22.81,70.53-22.05,34-54.12,52.82-93.33,60.18-31.26,5.86-61.28,2.34-89.57-13-5.38-2.91-8.69-.82-8.48,5.5.14,3.92-1.2,4.58-4.78,4.57q-55.23-.19-110.47,0c-3.81,0-5-.82-5-4.87C413.13,879.28,413,849.12,413,819Zm22.88-.37q0,32.49,0,65c0,7.78,0,7.78,7.53,7.78h56c10.56,0,10.56,0,10.84-10.5.22-8.43,4.29-12.38,12.73-12.64,6.4-.2,11,3.6,15.59,7q35.19,25.93,78.55,21c31.58-3.63,58.94-15.86,80-40.3,15.51-18,23.33-39.37,26.45-62.53,2.36-17.54,3.2-35.16-2.24-52.46-7.35-23.36-21.7-42-40.3-57.14-24.92-20.28-50.59-39.64-76-59.35C589.86,612.62,574.44,601,559.31,589c-9.11-7.22-10.56-17.12-4.4-25.48,7.52-10.19,16.32-11.81,26.8-4.9,1.53,1,3,2.08,4.45,3.22,10.46,8.25,21,16.45,31.29,24.86a11.28,11.28,0,0,0,7.7,2.64c31.32-.08,62.65-.14,94,0,4.85,0,6.36-1.48,6.34-6.26q-.19-66.23,0-132.46c0-4.7-1.35-6.44-6.28-6.37-19,.24-38,.09-57,.1-12.78,0-11.19-1-11.28,11.2-.06,7.48-3.76,11.11-11.21,11.92-7.05.77-12-3.19-17.1-6.93-26.92-19.92-57-25.81-89.41-19.2S473.76,464,455.92,492.53c-18.49,29.6-24.31,62.28-17.38,96.36,5.24,25.75,20.83,46,40.77,62.4,21.85,18,44.54,34.94,66.9,52.3,18.41,14.3,37,28.41,55.27,42.85,9.53,7.51,11.22,17.4,5,25.81-7.58,10.32-16.51,11.9-27.26,4.8-1.53-1-3-2.1-4.44-3.24-10.45-8.26-20.92-16.5-31.3-24.85a10.06,10.06,0,0,0-6.77-2.5q-47.49.1-95,0c-4.67,0-6,1.67-6,6.18C436,774.6,435.93,796.59,435.92,818.59Z"/><path class="cls-2" d="M512.44,222.2c7.54,6.77,14.24,13.42,19.3,21.59,1.72,2.77,1.4,4.15-1.72,5.61-14.79,6.93-28,16.06-38.49,28.76-5.81,7-5.29,11.45,2.33,16.35,9.48,6.1,20.29,8.21,31.2,9.68,6.58.89,12.53,2.19,18.43,6.09,22.92,15.17,59.59,14.06,80.17-3.47,1.56-1.33,3.22-1.45,5-1.66,9.27-1.07,18.49-2.34,27.27-5.73a35.73,35.73,0,0,0,11.59-6.72c4.69-4.31,5-8,1-13.05-9.71-12.42-22-21.68-35.78-29.1-5.93-3.2-5.95-3.21-2.16-9,4.34-6.6,10-12,15.62-17.46,2.61-2.53,3.38-1.57,4.79,1.1,8.18,15.38,20.33,25.94,37.82,29,23,4,42-3.41,56.69-21.54.52-.65,1-1.3,1.57-1.93a3.58,3.58,0,0,1,.74-.39c8.38,9.42,14,20.44,17.91,32.37,1.09,3.31,1.93,6.71,2.78,10.09a29.66,29.66,0,0,1-.85,18.5c-4.84,12.75-5,26.07-2.18,39.35a7.88,7.88,0,0,1-2.34,8C740.6,362,713,377.4,682.64,388c-40.52,14.08-82.37,18.18-125,15.74-37.6-2.15-73.76-10.13-107.83-26.52a199.18,199.18,0,0,1-52.44-36.09c-3.12-3-4-5.83-3.07-10.1,2.65-11.74,5.14-23.95,1.43-35.57-7.9-24.66,3.59-43.79,15.93-63,2.18-3.39,3.3-1.48,4.93.54,18.73,23.15,50.68,29.3,74.37,14.35C500.53,241.26,507.24,232.7,512.44,222.2Zm66.69,155.15q39,0,78,0a19,19,0,0,0,9.61-2.17c9.51-5.29,14.76-18,11.48-27.87-3.92-11.8-14-18-26.23-16.07-2,.31-3.93.73-5.91,1a587.87,587.87,0,0,1-130.12.3c-5.45-.6-10.92-2.14-16.31-1.87-11,.56-21.15,12.8-20.51,23.95.71,12.24,11.29,23.19,22.57,22.93C527.48,377,553.31,377.35,579.13,377.35Z"/><path class="cls-2" d="M796.71,115.11a10,10,0,0,1-3.17,6.56c-5.15,5-10.63,9.63-11.73,17.42-.38,2.65-2.34.86-3.51.47-15.45-5.18-30.92-10.3-46.59-14.79-16.47-4.72-33.09-8.84-49.91-12.12a16.28,16.28,0,0,0-11.85,2q-88.69,49.77-177.72.39A18.28,18.28,0,0,0,479,112.81c-31.6,6.09-62.3,15.36-92.61,26-4.1,1.44-6.5,2.17-7.23-3.4-.63-4.87-4.53-8-7.86-11.26-8.2-8-7.37-13.86,3.41-18.92,17.93-8.43,36.59-15,55.54-20.8A549,549,0,0,1,542.74,62.66a455.72,455.72,0,0,1,98.7,2.41C688,71.15,733.2,82.51,776.68,100.39c4.92,2,10,3.75,14.42,6.79C793.89,109.1,796.26,111.42,796.71,115.11Z"/><path class="cls-2" d="M381,226.87c0-24.75.05-49.07-.06-73.38,0-2.38,1.05-3.12,2.94-3.79,31.24-11,62.84-20.7,95.35-27.24a12.89,12.89,0,0,1,9.38,1.56q92,50.37,184.2.1a13.64,13.64,0,0,1,9.9-1.59c32.51,6.54,64.12,16.23,95.41,27.08,2.21.77,3,1.87,3,4.29q-.14,34.72,0,69.46c0,2.67-.49,3.57-3.38,2.7-4.52-1.36-7.93-3.05-6.72-8.81.51-2.4.12-5,.08-7.48-.16-10.8,1.61-8.6-8.89-12.36-33.79-12.09-68.76-19.4-104.11-25-7.55-1.21-15.14-2.23-22.73-3.17-3-.37-4.26-1.37-4.2-4.69.14-7-.08-7-6.83-7H531.84c-6.72,0-7.17.17-6.82,6.54.23,4.14-1.55,4.87-5.08,5.33-41.65,5.45-82.54,14.29-122.35,27.9-4.23,1.45-6.49,3.31-5.95,8.09.35,3.12-.11,6.32-.2,9.48C391.18,224.63,391.18,224.63,381,226.87Z"/><path class="cls-2" d="M384.37,347.66c.41,12.66,1.76,24,5.08,35,8.8,29.34,26.79,51.72,52.17,68.35,3.09,2,3.21,2.9.8,5.6-22.41,25.08-34,54.83-37.52,88-1.8,17.12-2.23,34.21,1.87,51.14.34,1.42,1.31,3.41-1.71,3.44-13.66.15-27.24.16-40.5-4.18-12.19-4-19.92-12.22-24.52-23.81-6.39-16.09-7.45-33-7.48-50-.08-32.82,7.48-64.33,16.93-95.44,6.18-20.36,12.65-40.65,22.4-59.68A78.94,78.94,0,0,1,384.37,347.66Z"/><path class="cls-2" d="M776.41,264.7c-4.34-13.64-9.92-25.81-18.12-36.71-26.12-34.71-76.71-42.79-110.45-17.48a61.53,61.53,0,0,0-10.35,9.37c-11.77,14.05-27.75,19.7-44.94,22.4-22.29,3.51-42.51-2.65-61.09-14.91a20.88,20.88,0,0,1-4.92-4.18c-32.43-40.42-98.76-34.87-126.52,9.13a124.37,124.37,0,0,0-13.76,30.28c-2.64-7-3.39-13.46-4.23-19.9-1.21-9.28-1.14-9.65,8-12.22,5.41-1.52,7.74-4,7.12-9.76-.45-4.11.27-8.34,0-12.48-.26-3.69,1.29-5.17,4.63-6.3a586.74,586.74,0,0,1,85-21.56c12.94-2.31,26-4.19,39-6,3.84-.53,5.52-2.23,4.92-5.85-.77-4.7,1.38-5.33,5.52-5.3q42.22.26,84.48,0c3.84,0,5.59.86,4.93,4.9-.74,4.59,1.57,5.81,5.9,6.36,44,5.65,87.4,13.72,129.37,28.51,3.47,1.23,4.72,2.83,4.43,6.39s.31,7.37-.15,11c-.74,5.75,1.8,8.3,7.08,9.95,9.76,3.05,9.74,3.33,8.27,13.58-.73,5.1-1.7,10.16-2.64,15.23C777.61,260.77,777.06,262.33,776.41,264.7Z"/><path class="cls-2" d="M776,348.25c8.76,8.52,13.76,18.28,17.74,28.51C806.67,410,818,443.71,824.23,478.88c4.16,23.64,7.14,47.46,2.69,71.49a133.21,133.21,0,0,1-4.44,16.86c-6.43,19.73-21.1,28.53-40.67,30.94a174.19,174.19,0,0,1-20.43,1.2c-2.88,0-3.7-.86-3.62-3.67.18-6.49,0-13,0-19.49,0-51.48.15-103-.18-154.43A32.76,32.76,0,0,1,762,404.69C771.56,387.51,775.85,368.85,776,348.25Z"/><path class="cls-2" d="M448.4,924.69c2.06-1.31,3.87-.8,5.58-.8q40.47-.06,80.94,0c4.29,0,7.56-.72,7.94-6,.24-3.45,2.41-1.13,3.49-.64a128.64,128.64,0,0,0,43.24,11.28c47.38,3.51,89.1-9.76,123.89-42.74A25.36,25.36,0,0,1,725.71,879c24.77-5.82,49.2-12.87,72.82-22.47,3-1.22,4.75-.92,6.61,1.8,4.23,6.19,7.1,12.9,7.5,20.35.5,9.48-3.43,16.82-12,21.24-12.65,6.49-26.25,10.44-39.88,14.11-41.69,11.23-84.11,18.49-127,23-41.94,4.46-83.76,3.26-125.52-2.45-19.29-2.64-38.5-5.62-57.61-9.35C450,925.12,449.39,924.94,448.4,924.69Z"/><path class="cls-2" d="M656,621.52h93.36c7.78,0,8.45-.7,8.46-8.65,0-6.82,0-6.8,6.76-6.32,10.68.75,21.12,2.35,30.77,7.5,2.66,1.43,3.83,3,3.81,6.15q-.21,27.22,0,54.45c0,3.07-.92,4.28-3.94,5q-29.79,7.46-60.15,11.9c-1.58.24-2.86.48-3.92-1.08-17.82-26.44-44.39-43.28-68.71-62.59-2.31-1.83-4.64-3.64-7-5.46Z"/><path class="cls-2" d="M725.91,872.22a159,159,0,0,0,29.54-72.71c3.62-25,3.93-49.77-5.49-73.8-1-2.61-1.24-3.94,2.32-4.6,14.39-2.63,28.73-5.57,43-8.6,3.35-.71,3.92.42,3.93,3.43q.16,65.2.52,130.42c0,2.12-.16,3.7-2.59,4.64a531,531,0,0,1-68.52,21.29c-.92.22-1.93.63-2.85-.13Z"/><path class="cls-2" d="M539.23,239c10.23,4.42,20.62,8.16,31.85,9.38,17.69,1.92,34.36-1.38,50.36-8.81l.75,1c-1.11,1.84-2.11,3.75-3.34,5.51-3.26,4.64-2.74,6.86,2.5,9.08a99.7,99.7,0,0,1,35.77,25.73c1.42,1.58,4.19,3,2.27,5.81-1.68,2.46-4.21,3.08-7.08,2.33-6.36-1.64-12.77-2.38-19.23-.6a21.86,21.86,0,0,0-10.67,6.17c-12.77,14.12-29.29,17.64-47.23,16.34A58,58,0,0,1,540,296.11c-8.75-7.8-19.27-9.13-30.45-7.41-3.56.56-7.91,2.25-10.07-1.6-2.27-4.07,2.39-6.05,4.58-8.37,9.72-10.35,21.44-17.84,34.53-23.22,6.58-2.7,7.12-4.39,3.09-10.17-1.23-1.76-2.26-3.67-3.38-5.51Z"/><path class="cls-2" d="M403.65,792.27c0,22.5-.1,45,.1,67.48,0,4.2-1,4.64-4.7,3.4-11-3.72-22.06-7.42-32.88-11.73-2.57-1-3.45-2.3-3.45-5.09q-.12-65-.51-130c0-3.78.92-4.35,4.57-3.51,10.69,2.45,21.48,4.55,32.27,6.52,3.64.67,4.72,2.21,4.69,5.91C403.56,747.62,403.65,770,403.65,792.27Z"/><path class="cls-2" d="M483,697.2c-8,.83-15.85-1.09-23.69-2.14a919.18,919.18,0,0,1-91.17-16.82c-4.84-1.15-6.19-3.13-6.1-8,.31-16.48.22-33,0-49.45-.06-3.83,1.18-5.74,4.79-6.82,13.55-4.06,27.5-4.6,41.47-5.11,2.22-.08,2.8,1.35,3.41,2.92C423.15,641,442.56,664,466.86,683.26c5.56,4.41,10.72,9.33,16.06,14Z"/><path class="cls-2" d="M531.28,408.55c-5.1,1.23-10.23,2.34-15.3,3.71a153,153,0,0,0-63.1,33.92c-2,1.79-3.39,2.54-5.93.88-36.1-23.55-55.4-56.46-56-99.89,0-.76.08-1.52.16-3C430.63,382.41,478.78,399.94,531.28,408.55Z"/><path class="cls-2" d="M769.21,341.92c1.14,11.56-.28,22.08-2.55,32.45a111.48,111.48,0,0,1-13.4,33.14c-2,3.33-4.14,4.79-8.27,4.77-39.29-.18-78.58-.09-117.87-.14-4.43,0-8.61-.16-8.51,6.11,0,1.95-1.54,1.4-2.53.93-7.14-3.43-14.66-5.83-23.52-8.61C667.73,407.59,730.74,382.24,769.21,341.92Z"/><path class="cls-2" d="M461.55,250.37q-26.15-.37-41.95-21.23c-1.74-2.27-1.82-3.6.4-5.74,20-19.3,56.82-23.74,80.87-9.61,5,3,5.93,9,1.76,15.23-7.12,10.7-17,17.62-29.66,20.25A43.68,43.68,0,0,1,461.55,250.37Z"/><path class="cls-2" d="M701.9,250.39c-16.72-.08-29.44-5.14-39.23-16.67a23.19,23.19,0,0,1-4.33-6.63c-3.47-9.49-1.51-12,5.37-15.26,24.64-11.76,57.84-6.77,77.87,11.75,2.6,2.4,2,3.86.27,6.1C731.24,243.29,717.38,250.24,701.9,250.39Z"/><path class="cls-2" d="M504.1,714.25c-28.61,0-57.23-.08-85.85,0-18.13.06-35.5-4.9-53.21-7.69-2.42-.38-2.86-1.6-2.82-3.71.1-5.33.23-10.67-.05-16-.2-3.73,1.2-4.14,4.37-3.32,19.49,5.06,39.23,8.89,59.07,12.25,21,3.55,42.07,6.65,63.29,8.42C495.85,704.81,499.14,710.5,504.1,714.25Z"/><path class="cls-2" d="M403.65,892.58c0,6.15-.09,12.31,0,18.47.07,2.83-.71,3.29-3.47,2.52-11.84-3.31-23.63-6.78-34.83-11.93-14.32-6.59-18.81-17.18-13.77-32.2.32-.94.67-1.87,1.06-2.79,4.85-11.66,5.49-11.85,17.09-7.63,9.82,3.58,19.71,7,29.69,10.15,3.34,1,4.43,2.53,4.27,5.94C403.45,880.92,403.65,886.75,403.65,892.58Z"/><path class="cls-2" d="M772.82,315.46a78.49,78.49,0,0,1,5.4-25.79c5.69-15.12,10.82-30.4,11.9-46.7.16-2.54,1-3.68,3.68-2.45,4.08,1.86,8.26,3.51,12.33,5.38,3.38,1.56,5.21,4.31,4.6,8-3,18.51-5,37.27-12.66,54.73C795,315.61,791.19,322,785.44,327c-6,5.24-10.33,3.7-11.74-4.14C773.26,320.43,773.11,317.93,772.82,315.46Z"/><path class="cls-2" d="M388.19,310.92c-.38,3.63-.53,7.31-1.19,10.9-1.06,5.73-5.19,7.55-10.39,4.89-2.47-1.27-4.09-3.35-5.63-5.54-9.22-13.15-13-28.3-15.89-43.72-1.39-7.35-2.27-14.8-3.58-22.16-.79-4.43.68-7.57,4.65-9.42,4.82-2.24,10.47-6.79,14.41-5.65S373,249.14,374,254a248.13,248.13,0,0,0,10.37,36.4A58.76,58.76,0,0,1,388.19,310.92Z"/><path class="cls-2" d="M736.31,697.5c12.6-2.41,25.1-4.76,37.58-7.21,5.7-1.11,11.34-2.48,17-3.6,5.2-1,7.47.71,8,6,.12,1.15.15,2.32.16,3.48.12,8.82-.59,9.89-9.28,11.69-13.48,2.8-27,5.35-40.51,8.09-2.08.42-3.32.13-4.35-2C742.27,708.5,739.3,703.14,736.31,697.5Z"/><path class="cls-2" d="M538.26,239.83c-.07-.4-.13-.8-.19-1.2l1.16.4Z"/><path class="cls-2" d="M621.44,239.6l1.19-.1c-.15.36-.29.72-.44,1.09Z"/><path class="cls-2" d="M482.92,697.27l.63.54-.44.08c0-.23-.06-.46-.08-.69Z"/><path class="cls-2" d="M725.81,872.16l-.16.64c0-.09-.12-.21-.09-.25a2.2,2.2,0,0,1,.35-.33Z"/><path class="cls-3" d="M435.93,818.59c0-22,.1-44-.09-66,0-4.51,1.28-6.2,6-6.18q47.47.21,95,0a10.06,10.06,0,0,1,6.77,2.5c10.38,8.35,20.85,16.59,31.3,24.85,1.43,1.14,2.91,2.23,4.44,3.24,10.75,7.1,19.68,5.52,27.26-4.8,6.17-8.41,4.48-18.3-5-25.81-18.31-14.44-36.86-28.55-55.27-42.85-22.36-17.36-45.05-34.32-66.9-52.3-19.94-16.41-35.53-36.65-40.77-62.4-6.93-34.08-1.11-66.76,17.38-96.36C473.76,464,500.67,448,533.2,441.37s62.49-.72,89.41,19.2c5.06,3.74,10,7.7,17.1,6.93,7.45-.81,11.15-4.44,11.21-11.92.09-12.24-1.5-11.19,11.28-11.2,19,0,38,.14,57-.1,4.93-.07,6.29,1.67,6.28,6.37q-.19,66.23,0,132.46c0,4.78-1.49,6.29-6.34,6.26-31.32-.19-62.65-.13-94,0a11.28,11.28,0,0,1-7.7-2.64c-10.33-8.41-20.83-16.61-31.29-24.86-1.43-1.14-2.92-2.21-4.45-3.22-10.48-6.91-19.28-5.29-26.8,4.9-6.16,8.36-4.71,18.26,4.4,25.48,15.13,12,30.55,23.64,45.81,35.49,25.38,19.71,51,39.07,76,59.35C699.69,699,714,717.6,721.39,741c5.44,17.3,4.6,34.92,2.24,52.46C720.51,816.58,712.69,838,697.18,856c-21.09,24.44-48.45,36.67-80,40.3q-43.38,5-78.55-21c-4.64-3.42-9.19-7.22-15.59-7-8.44.26-12.51,4.21-12.73,12.64-.28,10.5-.28,10.5-10.84,10.5h-56c-7.53,0-7.53,0-7.53-7.78Q435.92,851.08,435.93,818.59Z"/><path class="cls-1" d="M579.13,377.35c-25.82,0-51.65-.4-77.46.19-11.28.26-21.86-10.69-22.57-22.93-.64-11.15,9.52-23.39,20.51-23.95,5.39-.27,10.86,1.27,16.31,1.87a587.87,587.87,0,0,0,130.12-.3c2-.23,3.94-.65,5.91-1,12.23-1.91,22.31,4.27,26.23,16.07,3.28,9.86-2,22.58-11.48,27.87a19,19,0,0,1-9.61,2.17Q618.12,377.29,579.13,377.35Zm-54.66-8.67h97.4c3.17,0,6.33,0,9.49,0,.91,0,2,.34,2.52-1,.84-2.27-4.53-10.07-6.87-9.91a739.69,739.69,0,0,1-88.84.49c-10.21-.53-10.22-.43-13.87,9.13C524.24,367.54,524.33,367.72,524.47,368.68Zm48-14.43c21.32-.11,36.27-.51,51.19-1.67,1.08-.08,3.37,1,3.09-1.81-.46-4.58-3.79-7.65-8.38-7.38a652.9,652.9,0,0,1-76.75,0c-1.32-.08-2.66-.15-4-.12-5,.12-4.83,4.75-5.54,7.56-.77,3,3,1.78,4.37,1.86C550.54,353.49,564.66,354,572.43,354.25Zm79.9,14.43c11.41,1,14.26-3.16,17.26-9.93,1.72-3.88.21-5.77-4-5.35-5,.48-9.84,1.5-14.78,2-3.1.33-4.47,1.63-5.2,4.78C643.62,368.72,643.43,368.68,652.33,368.68Zm-146.17,0c2.38-.3,5.39.82,7.92-.64,1.45-.84-2.4-11.78-4.29-12.09-5.9-1-11.81-1.91-17.74-2.58-3.26-.37-4.54,1.16-3.54,4.58C490.74,365.52,495.67,368.68,506.16,368.68ZM645,341.25c-4.89.42-9.3.87-13.72,1.17-1.95.13-2.19.9-1.44,2.51,2.35,5.1,4.65,10.24,7,15.35.4.88.78,2,1.95,1.92s1.26-1.4,1.49-2.29C641.85,353.87,643.35,347.81,645,341.25ZM528.59,345c.53-2.15-.31-2.48-1.43-2.58-3.79-.36-7.58-.74-11.36-1.11-1.44-.14-2.28.3-1.87,1.93,1.5,5.93,3,11.87,4.56,17.77.39,1.42,1.65,1.92,2.43.33C523.67,355.74,526.27,350,528.59,345Zm129.46-5.84c-6.81.09-10.72,3.7-9.13,9.49,1.11,4,5.18.48,7.9.68a10.9,10.9,0,0,0,3.9-.58c2.38-.73,6.14-.31,6-3.79-.09-3.29-3.34-4.63-6.25-5.54A9.86,9.86,0,0,0,658.05,339.2ZM506.51,350.34c1.25-.5,3.89,1.08,3.2-1.6-.78-3,0-6.93-3.59-8.63-4.3-2-10.16-.94-13,2-2.58,2.66-2.21,4.87,1.32,5.83C498.39,349.06,502.53,349.59,506.51,350.34Z"/><path class="cls-2" d="M524.47,368.68c-.14-1-.23-1.14-.17-1.28,3.65-9.56,3.66-9.66,13.87-9.13a739.69,739.69,0,0,0,88.84-.49c2.34-.16,7.71,7.64,6.87,9.91-.47,1.3-1.61.94-2.52,1-3.16.06-6.32,0-9.49,0h-97.4Z"/><path class="cls-2" d="M572.43,354.25c-7.77-.3-21.89-.76-36-1.52-1.42-.08-5.14,1.15-4.37-1.86.71-2.81.55-7.44,5.54-7.56,1.32,0,2.66,0,4,.12a652.9,652.9,0,0,0,76.75,0c4.59-.27,7.92,2.8,8.38,7.38.28,2.81-2,1.73-3.09,1.81C608.7,353.74,593.75,354.14,572.43,354.25Z"/><path class="cls-2" d="M652.33,368.68c-8.9,0-8.71,0-6.74-8.48.73-3.15,2.1-4.45,5.2-4.78,4.94-.52,9.83-1.54,14.78-2,4.23-.42,5.74,1.47,4,5.35C666.59,365.52,663.74,369.69,652.33,368.68Z"/><path class="cls-2" d="M506.16,368.68c-10.49,0-15.42-3.16-17.65-10.73-1-3.42.28-4.95,3.54-4.58C498,354,503.89,355,509.79,356c1.89.31,5.74,11.25,4.29,12.09C511.55,369.5,508.54,368.38,506.16,368.68Z"/><path class="cls-2" d="M645,341.25c-1.66,6.56-3.16,12.62-4.73,18.66-.23.89-.22,2.19-1.49,2.29s-1.55-1-1.95-1.92c-2.34-5.11-4.64-10.25-7-15.35-.75-1.61-.51-2.38,1.44-2.51C635.71,342.12,640.12,341.67,645,341.25Z"/><path class="cls-2" d="M528.59,345c-2.32,5-4.92,10.7-7.67,16.34-.78,1.59-2,1.09-2.43-.33-1.61-5.9-3.06-11.84-4.56-17.77-.41-1.63.43-2.07,1.87-1.93,3.78.37,7.57.75,11.36,1.11C528.28,342.56,529.12,342.89,528.59,345Z"/><path class="cls-2" d="M658.05,339.2a9.86,9.86,0,0,1,2.47.26c2.91.91,6.16,2.25,6.25,5.54.09,3.48-3.67,3.06-6,3.79a10.9,10.9,0,0,1-3.9.58c-2.72-.2-6.79,3.34-7.9-.68C647.33,342.9,651.24,339.29,658.05,339.2Z"/><path class="cls-2" d="M506.51,350.34c-4-.75-8.12-1.28-12.11-2.36-3.53-1-3.9-3.17-1.32-5.83,2.88-3,8.74-4.07,13-2,3.58,1.7,2.81,5.66,3.59,8.63C510.4,351.42,507.76,349.84,506.51,350.34Z"/></g></g></svg>